# xmcd
#
# Track frame offsets: 
#        150
#        14320
#        28636
#        41005
#        53378
#        66552
#        80624
#        94750
#        109150
#        123851
#        136737
#        150581
#        164217
#        175931
#        189103
#        202012
#        213642
#        227555
#        238940
#        252431
#        266925
#        279106
#        294425
#        307765
#
# Disc length: 4286 seconds
#
# Revision: 0
# Processed by: cddbd v1.5.2PL0 Copyright (c) Steve Scherf et al.
# Submitted via: ExactAudioCopyFreeDBPlugin 1.0
#
DISCID=5310bc18
DTITLE=Sara Martin - In Chronological Order Vol. 3 (1924-1925)
DYEAR=1995
DGENRE=Blues
TTITLE0=Pleading Blues
TTITLE1=Every Woman Needs a Man
TTITLE2=Got to Leave My Home Blues
TTITLE3=Poor Me Blues
TTITLE4=If I Don't Find My Brown I Won't Be Back at All
TTITLE5=Too Late Now to Get Your Baby Back
TTITLE6=He's Never Gonna Throw Me Down
TTITLE7=What Kinda Man Is You
TTITLE8=Some Blues (No Name Blues)
TTITLE9=Old Fashioned Sara Blues
TTITLE10=Sobbin' Hearted Blues
TTITLE11=I'd Rather Be Blue Than Green
TTITLE12=Cage of Apes
TTITLE13=Things Done Got Too Thick
TTITLE14=Eagle Rock Me, Papa
TTITLE15=Can't Find Nobody to Do Like My Old Daddy Do
TTITLE16=I'm Sorry Blues
TTITLE17=Daddy, Ease This Paine of Mine
TTITLE18=Strange Lovin' Blues
TTITLE19=I Can Always Tell When a Man Is Treatin' Me Cool
TTITLE20=Down at the Razor Ball
TTITLE21=Mournful Blues
TTITLE22=Georgia Stockade Blues
TTITLE23=I'm Gonna Hoodoo You
EXTD=
EXTT0=
EXTT1=
EXTT2=
EXTT3=
EXTT4=
EXTT5=
EXTT6=
EXTT7=
EXTT8=
EXTT9=
EXTT10=
EXTT11=
EXTT12=
EXTT13=
EXTT14=
EXTT15=
EXTT16=
EXTT17=
EXTT18=
EXTT19=
EXTT20=
EXTT21=
EXTT22=
EXTT23=
PLAYORDER=
